<?xml version="1.0" encoding="UTF-8"?>
<svg width="140px" height="95px" viewBox="0 0 140 95" version="1.1" xmlns="http://www.w3.org/2000/svg" xmlns:xlink="http://www.w3.org/1999/xlink">
    <!-- Generator: Sketch 48.1 (47250) - http://www.bohemiancoding.com/sketch -->
    <desc>Created with Sketch.</desc>
    <defs></defs>
    <g id="Page-1" stroke="none" stroke-width="1" fill="none" fill-rule="evenodd" fill-opacity="0.814254982">
        <g id="cloud-upload" fill="#EE5856">
            <path d="M112.708936,35.2980479 C108.642118,15.2958208 91.2129016,0 69.7168675,0 C52.8686245,0 38.3442771,9.41281278 31.3725904,23.5320319 C13.3623996,25.8852351 0,40.5927551 0,58.8300799 C0,78.2440062 15.6862952,94.1281278 34.8584337,94.1281278 L110.38504,94.1281278 C126.652309,94.1281278 139.433735,81.1855102 139.433735,64.7130878 C139.433735,49.4172671 127.233283,36.4746495 112.708936,35.2980479 L112.708936,35.2980479 Z M81.3363454,52.9470719 L81.3363454,76.4791038 L58.0973896,76.4791038 L58.0973896,52.9470719 L40.6681727,52.9470719 L69.7168675,23.5320319 L98.7655622,52.9470719 L81.3363454,52.9470719 L81.3363454,52.9470719 Z" id="Shape"></path>
        </g>
    </g>
</svg>