<?xml version="1.0" encoding="UTF-8"?>
<svg width="45px" height="45px" viewBox="0 0 45 45" version="1.1" xmlns="http://www.w3.org/2000/svg" xmlns:xlink="http://www.w3.org/1999/xlink">
    <!-- Generator: Sketch 48.1 (47250) - http://www.bohemiancoding.com/sketch -->
    <desc>Created with Sketch.</desc>
    <defs></defs>
    <g id="Page-1" stroke="none" stroke-width="1" fill="none" fill-rule="evenodd">
        <g id="poll" fill="#000000">
            <path d="M40,0 L5,0 C2.25,0 0,2.25 0,5 L0,40 C0,42.75 2.25,45 5,45 L40,45 C42.75,45 45,42.75 45,40 L45,5 C45,2.25 42.75,0 40,0 L40,0 Z M10,35 L10,17.5 L15,17.5 L15,35 L10,35 Z M20,35 L20,10 L25,10 L25,35 L20,35 Z M30,35 L30,25 L35,25 L35,35 L30,35 Z" id="Shape"></path>
        </g>
    </g>
</svg>