<?xml version="1.0" encoding="UTF-8"?>
<svg width="41px" height="48px" viewBox="0 0 41 48" version="1.1" xmlns="http://www.w3.org/2000/svg" xmlns:xlink="http://www.w3.org/1999/xlink">
    <!-- Generator: Sketch 48.1 (47250) - http://www.bohemiancoding.com/sketch -->
    <desc>Created with Sketch.</desc>
    <defs></defs>
    <g id="Page-1" stroke="none" stroke-width="1" fill="none" fill-rule="evenodd">
        <g id="location-city" fill="#000000">
            <path d="M27.3333333,22.7368421 L27.3333333,7.57894737 L20.5,0 L13.6666667,7.57894737 L13.6666667,12.6315789 L0,12.6315789 L0,48 L41,48 L41,22.7368421 L27.3333333,22.7368421 L27.3333333,22.7368421 Z M9.11111111,42.9473684 L4.55555556,42.9473684 L4.55555556,37.8947368 L9.11111111,37.8947368 L9.11111111,42.9473684 L9.11111111,42.9473684 Z M9.11111111,32.8421053 L4.55555556,32.8421053 L4.55555556,27.7894737 L9.11111111,27.7894737 L9.11111111,32.8421053 L9.11111111,32.8421053 Z M9.11111111,22.7368421 L4.55555556,22.7368421 L4.55555556,17.6842105 L9.11111111,17.6842105 L9.11111111,22.7368421 L9.11111111,22.7368421 Z M22.7777778,42.9473684 L18.2222222,42.9473684 L18.2222222,37.8947368 L22.7777778,37.8947368 L22.7777778,42.9473684 L22.7777778,42.9473684 Z M22.7777778,32.8421053 L18.2222222,32.8421053 L18.2222222,27.7894737 L22.7777778,27.7894737 L22.7777778,32.8421053 L22.7777778,32.8421053 Z M22.7777778,22.7368421 L18.2222222,22.7368421 L18.2222222,17.6842105 L22.7777778,17.6842105 L22.7777778,22.7368421 L22.7777778,22.7368421 Z M22.7777778,12.6315789 L18.2222222,12.6315789 L18.2222222,7.57894737 L22.7777778,7.57894737 L22.7777778,12.6315789 L22.7777778,12.6315789 Z M36.4444444,42.9473684 L31.8888889,42.9473684 L31.8888889,37.8947368 L36.4444444,37.8947368 L36.4444444,42.9473684 L36.4444444,42.9473684 Z M36.4444444,32.8421053 L31.8888889,32.8421053 L31.8888889,27.7894737 L36.4444444,27.7894737 L36.4444444,32.8421053 L36.4444444,32.8421053 Z" id="Shape"></path>
        </g>
    </g>
</svg>