<?xml version="1.0" encoding="UTF-8"?>
<svg width="68px" height="49px" viewBox="0 0 68 49" version="1.1" xmlns="http://www.w3.org/2000/svg" xmlns:xlink="http://www.w3.org/1999/xlink">
    <!-- Generator: Sketch 48.1 (47250) - http://www.bohemiancoding.com/sketch -->
    <title>GB@3x</title>
    <desc>Created with Sketch.</desc>
    <defs>
        <rect id="path-1" x="0" y="0" width="68" height="49" rx="2"></rect>
    </defs>
    <g id="33---Choose-Lanuage" stroke="none" stroke-width="1" fill="none" fill-rule="evenodd" transform="translate(-62.000000, -843.000000)">
        <g id="Group" transform="translate(62.000000, 835.000000)">
            <g id="GB" transform="translate(0.000000, 8.000000)">
                <mask id="mask-2" fill="white">
                    <use xlink:href="#path-1"></use>
                </mask>
                <use id="Mask" fill="#FFFFFF" xlink:href="#path-1"></use>
                <rect id="Mask-Copy" fill="#0A17A7" mask="url(#mask-2)" x="0" y="0" width="68" height="49"></rect>
                <path d="M16.050666,32.6666667 L-2.13162821e-14,32.6666667 L-2.13162821e-14,16.3333333 L16.050666,16.3333333 L-6.75198475,0.952751174 L-3.09859111,-4.46362763 L25.9047619,15.099381 L25.9047619,-3.26666667 L42.0952381,-3.26666667 L42.0952381,15.099381 L71.0985911,-4.46362763 L74.7519847,0.952751174 L51.949334,16.3333333 L68,16.3333333 L68,32.6666667 L51.949334,32.6666667 L74.7519847,48.0472488 L71.0985911,53.4636276 L42.0952381,33.900619 L42.0952381,52.2666667 L25.9047619,52.2666667 L25.9047619,33.900619 L-3.09859111,53.4636276 L-6.75198475,48.0472488 L16.050666,32.6666667 Z" id="Rectangle-2" fill="#FFFFFF" mask="url(#mask-2)"></path>
                <path d="M45.3364955,15.5138753 L76.0952381,-4.9" id="Line" stroke="#DB1F35" stroke-width="0.666666667" stroke-linecap="round" mask="url(#mask-2)"></path>
                <path d="M48.6024577,52.3083374 L76.1760719,33.5588989" id="Line-Copy-2" stroke="#DB1F35" stroke-width="0.666666667" stroke-linecap="round" mask="url(#mask-2)" transform="translate(62.389265, 42.933618) scale(1, -1) translate(-62.389265, -42.933618) "></path>
                <path d="M19.4420108,15.4606405 L-9.31960333,-4.09390055" id="Line-Copy" stroke="#DB1F35" stroke-width="0.666666667" stroke-linecap="round" mask="url(#mask-2)"></path>
                <path d="M22.5615234,54.6606405 L-9.31960333,33.3320028" id="Line-Copy-3" stroke="#DB1F35" stroke-width="0.666666667" stroke-linecap="round" mask="url(#mask-2)" transform="translate(6.620960, 43.996322) scale(1, -1) translate(-6.620960, -43.996322) "></path>
                <polygon id="Rectangle-2-Copy-3" fill="#E6273E" mask="url(#mask-2)" points="0 29.4 29.1428571 29.4 29.1428571 49 38.8571429 49 38.8571429 29.4 68 29.4 68 19.6 38.8571429 19.6 38.8571429 0 29.1428571 0 29.1428571 19.6 0 19.6"></polygon>
            </g>
        </g>
    </g>
</svg>