<?xml version="1.0" encoding="UTF-8"?>
<svg width="50px" height="50px" viewBox="0 0 50 50" version="1.1" xmlns="http://www.w3.org/2000/svg" xmlns:xlink="http://www.w3.org/1999/xlink">
    <!-- Generator: Sketch 48.1 (47250) - http://www.bohemiancoding.com/sketch -->
    <title>house</title>
    <desc>Created with Sketch.</desc>
    <defs></defs>
    <g id="List-of-Cafe" stroke="none" stroke-width="1" fill="none" fill-rule="evenodd" transform="translate(-86.000000, -1262.000000)">
        <g id="tabs" transform="translate(0.000000, 1239.000000)" fill="#101010">
            <g id="house" transform="translate(86.000000, 34.000000)">
                <path d="M50,13.9624473 C50.0078301,14.51559 49.7896862,15.0480609 49.3958333,15.4371673 C49.2771875,15.5464563 49.143983,15.6388503 49,15.7117273 C48.3665205,16.9522841 47.2004019,17.8361971 45.8333333,18.1120473 L43.75,18.1120473 L43.75,34.7520473 C43.75,37.0495519 41.8845198,38.9120473 39.5833333,38.9120473 L10.4166667,38.9120473 C8.11548021,38.9120473 6.25,37.0495519 6.25,34.7520473 L6.25,18.1120473 L4.16666667,18.1120473 C1.91994574,18.1017744 0.085965362,16.3148943 0.0208333333,14.0726873 C0.0208333333,14.0414873 0,14.0102873 0,13.9790873 L0,13.9520473 L0,13.9520473 C0.0140755444,13.4295892 0.230667632,12.9329702 0.604166667,12.5667673 L23.3125,-10.1177127 C23.3650076,-10.2276704 23.435406,-10.3281789 23.5208333,-10.4151527 C24.3522882,-11.1949491 25.6477118,-11.1949491 26.4791667,-10.4151527 C26.5646349,-10.3274293 26.6350242,-10.2262308 26.6875,-10.1156327 L49.3958333,12.5667673 C49.7693324,12.9329702 49.9859245,13.4295892 50,13.9520473 L50,13.9520473 L50,13.9520473 L50,13.9624473 Z M22.9166667,34.7624473 L27.0833333,34.7624473 L27.0833333,24.3624473 L22.9166667,24.3624473 L22.9166667,34.7624473 L22.9166667,34.7624473 Z M25,-6.04507266 L4.95833333,13.9520473 L10.4166667,13.9520473 L10.4166667,34.7520473 L18.75,34.7520473 L18.75,22.2720473 C18.75,21.1232951 19.6827401,20.1920473 20.8333333,20.1920473 L29.1666667,20.1920473 C30.3172599,20.1920473 31.25,21.1232951 31.25,22.2720473 L31.25,34.7520473 L39.5833333,34.7520473 L39.5833333,13.9520473 L45.0416667,13.9520473 L25,-6.04507266 Z"></path>
            </g>
        </g>
    </g>
</svg>