<?xml version="1.0" encoding="UTF-8"?>
<svg width="71px" height="43px" viewBox="0 0 71 43" version="1.1" xmlns="http://www.w3.org/2000/svg" xmlns:xlink="http://www.w3.org/1999/xlink">
    <!-- Generator: Sketch 48.1 (47250) - http://www.bohemiancoding.com/sketch -->
    <title>Maestro-dark Copy 2</title>
    <desc>Created with Sketch.</desc>
    <defs></defs>
    <g id="Payment" stroke="none" stroke-width="1" fill="none" fill-rule="evenodd" transform="translate(-401.000000, -987.000000)">
        <g id="Maestro-dark-Copy-2" transform="translate(401.000000, 987.000000)">
            <rect id="Rectangle" fill="#000066" x="0" y="0" width="70.0155565" height="43" rx="4"></rect>
            <path d="M58.5725569,21.488342 C58.5725569,29.411333 52.3230696,35.8333333 44.6120443,35.8333333 C36.9025635,35.8333333 30.6521936,29.411333 30.6521936,21.488342 C30.6521936,13.5651243 36.9025635,7.14289727 44.6120443,7.14289727 C52.3230696,7.14289727 58.5725569,13.5651243 58.5725569,21.488342" id="Fill-356" fill="#CC0000"></path>
            <path d="M33.8279057,30.5981154 C33.4424427,30.1177349 33.0874284,29.6101502 32.764628,29.0787619 L37.7123226,29.0787619 C38.0093079,28.5918071 38.2773889,28.0844491 38.5167863,27.5596351 L31.9606055,27.5596351 C31.7370944,27.0681462 31.5385158,26.5612416 31.3695034,26.0409617 L39.1067852,26.0409617 C39.5727829,24.6104752 39.8245363,23.08024 39.8245363,21.488342 C39.8245363,20.4459685 39.7164214,19.4294389 39.5112235,18.4505418 L30.9661684,18.4505418 C31.0742833,17.9329822 31.2106406,17.4265311 31.3712686,16.931415 L39.1059027,16.931415 C38.9362283,16.411135 38.738753,15.9044572 38.5154625,15.4129683 L31.9619294,15.4129683 C32.2013269,14.8881543 32.4700698,14.3817031 32.7661725,13.8936148 L37.7107781,13.8936148 C37.3881983,13.3635866 37.0323014,12.8569088 36.6475004,12.3758482 L33.8296709,12.3758482 C34.263234,11.8351651 34.7343065,11.3275804 35.2386959,10.8576282 C32.7608771,8.54912672 29.4721958,7.14289727 25.8649063,7.14289727 C18.1543223,7.14289727 11.9039524,13.5651243 11.9039524,21.488342 C11.9039524,29.411333 18.1543223,35.8333333 25.8649063,35.8333333 C29.4724164,35.8333333 32.7613183,34.4271039 35.2386959,32.1195092 C35.7437474,31.6486502 36.2154817,31.139932 36.6490449,30.5981154 L33.8279057,30.5981154" id="Fill-357" fill="#0066CC"></path>
            <path d="M35.0396761,25.3649378 C34.4430579,25.5272561 33.866077,25.6066016 33.2562202,25.6052414 C31.3103712,25.6034278 30.2969587,24.6927678 30.2969587,22.9512468 C30.2969587,20.9166008 31.5870572,19.4201441 33.3382993,19.4201441 C34.7707125,19.4201441 35.6850564,20.2591664 35.6850564,21.5738085 C35.6850564,22.0099822 35.6232764,22.4350475 35.4716948,23.0358065 L32.0113534,23.0358065 C31.8882347,23.8863906 32.4925754,24.2597679 33.5214329,24.2597679 C34.1376883,24.2597679 34.6948114,24.1459638 35.31217,23.8909246 L35.0396761,25.3649378 L35.0396761,25.3649378 Z M34.1092253,21.8358754 C34.1092253,21.7075624 34.3016259,20.7944087 33.3001281,20.7746857 C32.7471972,20.7746857 32.3507021,21.1523704 32.1902947,21.8358754 L34.1092253,21.8358754 L34.1092253,21.8358754 Z" id="Fill-359" fill="#000066"></path>
            <path d="M36.2119514,21.4368808 C36.2119514,22.1883963 36.6236709,22.7077694 37.5598584,23.0942955 C38.2754031,23.3953551 38.3879309,23.4826352 38.3879309,23.7517299 C38.3879309,24.1246538 38.0719704,24.2955868 37.369885,24.2910527 C36.8427693,24.2871988 36.3615473,24.2212287 35.7938333,24.0595905 L35.5425211,25.4304545 C36.0473519,25.550833 36.7549534,25.5902791 37.382241,25.6052414 C39.250865,25.6052414 40.1135784,24.9765981 40.1135784,23.6177493 C40.1135784,22.800717 39.75371,22.3203365 38.8662846,21.9621482 C38.1244834,21.6574613 38.0375501,21.5919446 38.0375501,21.3160489 C38.0375501,20.9923191 38.3314464,20.8286406 38.9044558,20.8286406 C39.2519682,20.8286406 39.7274535,20.8612856 40.1788887,20.9175076 L40.431966,19.5391624 C39.9721464,19.4736457 39.2746944,19.4210509 38.8706974,19.4210509 C36.89109,19.4210509 36.2059941,20.3366983 36.2119514,21.4368808" id="Fill-360" fill="#000066"></path>
            <path d="M29.3484152,25.5070796 L27.8968061,25.5070796 L27.931447,24.8822903 C27.4888375,25.3751394 26.8990592,25.604788 26.0990084,25.604788 C25.1520094,25.604788 24.5033195,24.9394191 24.5033195,23.982512 C24.5033195,22.5279951 25.6310249,21.6889728 27.570034,21.6889728 C27.7692745,21.6889728 28.0227931,21.7043885 28.2831516,21.7345398 C28.3369885,21.5398032 28.3515509,21.4559237 28.3515509,21.3502808 C28.3515509,20.9521929 28.0464019,20.8055171 27.2304647,20.8055171 C26.426001,20.8086909 25.8832197,20.9313364 25.3794921,21.0703044 L25.6274946,19.7359393 C26.4985925,19.508331 27.0687336,19.4201441 27.7141138,19.4201441 C29.2155882,19.4201441 30.0085785,20.0254372 30.0085785,21.1621185 C30.0211551,21.4656719 29.9185562,22.0745921 29.8667052,22.3411931 C29.8080142,22.728626 29.3918818,24.9765981 29.3484152,25.5070796 L29.3484152,25.5070796 Z M28.0742029,22.8533118 C27.8904074,22.8347223 27.8103141,22.8290547 27.684327,22.8290547 C26.6943027,22.8290547 26.1923403,23.1319279 26.1923403,23.7297398 C26.1923403,24.1051575 26.4372538,24.3397936 26.8191865,24.3397936 C27.530539,24.3397936 28.0441955,23.7283796 28.0742029,22.8533118 L28.0742029,22.8533118 Z" id="Fill-361" fill="#000066"></path>
            <path d="M43.1721292,25.4127718 C42.695982,25.5467524 42.3246401,25.6052414 41.9232909,25.6052414 C41.0341003,25.6052414 40.5484654,25.1382363 40.5484654,24.3066952 C40.5204438,24.07818 40.737777,23.0226578 40.787201,22.728626 C40.8361837,22.4336873 41.6064478,18.1340665 41.6064478,18.1340665 L43.3340811,18.1340665 L43.07284,19.5568452 L43.9589415,19.5568452 L43.7182202,21.0084149 L42.8281471,21.0084149 C42.8281471,21.0084149 42.3398645,23.5286556 42.3398645,23.7213519 C42.3398645,24.0267188 42.519909,24.1595659 42.9336143,24.1595659 C43.1313103,24.1595659 43.2842158,24.1405229 43.4022597,24.1042507 L43.1721292,25.4127718" id="Fill-362" fill="#000066"></path>
            <path d="M50.8917596,19.4201441 C49.6254905,19.4201441 48.6361281,19.9562932 48.0613535,20.850404 L48.5602269,19.5237467 C47.6410289,19.1771201 47.0483823,19.6720095 46.5128822,20.3752376 C46.5128822,20.3752376 46.4230806,20.4919889 46.3334996,20.5987653 L46.3334996,19.556165 L44.7113335,19.556165 C44.4915733,21.3963012 44.1030213,23.262508 43.7991961,25.1067248 L43.7257221,25.5077597 L45.4707861,25.5077597 C45.6364889,24.5719359 45.7724049,23.8124859 45.9078796,23.2067394 C46.2785595,21.5450174 46.9025374,21.037206 47.8391662,21.2620939 C47.6229362,21.7393006 47.504451,22.2924523 47.504451,22.9043196 C47.504451,24.3898946 48.2890569,25.6052414 50.2384362,25.6052414 C52.2052463,25.6052414 53.6294957,24.5256888 53.6294957,22.0639371 C53.6294957,20.579269 52.6802903,19.4201441 50.8917596,19.4201441 L50.8917596,19.4201441 Z M50.3838398,24.1613795 C49.7675844,24.1711276 49.3938155,23.6397393 49.3938155,22.8444704 C49.3938155,21.902299 49.9390239,20.837482 50.8151966,20.837482 C51.5221362,20.837482 51.7641813,21.4135305 51.7641813,22.0272115 C51.7641813,23.3674708 51.2295638,24.1613795 50.3838398,24.1613795 L50.3838398,24.1613795 Z" id="Fill-363" fill="#000066"></path>
            <polyline id="Fill-364" fill="#000066" points="23.6902507 25.5077597 21.9522472 25.5077597 22.9850762 19.9163937 20.6072085 25.5077597 19.0229931 25.5077597 18.7335097 19.9492655 17.697371 25.5077597 16.1206574 25.5077597 17.4634896 18.234722 20.1793821 18.234722 20.405541 22.2892784 22.1261137 18.234722 25.0600013 18.234722 23.6902507 25.5077597"></polyline>
            <path d="M35.4756663,24.9167489 C34.8794894,25.0792939 34.3022878,25.1586394 33.6926517,25.1572792 C31.7468027,25.1554656 30.7333902,24.2445789 30.7333902,22.5032847 C30.7333902,20.4686386 32.0232681,18.972182 33.7742895,18.972182 C35.2069234,18.972182 36.1214879,19.8112042 36.1214879,21.1256196 C36.1214879,21.5617933 36.0594872,21.9859518 35.9081263,22.5878443 L32.4480055,22.5878443 C32.3246662,23.4375216 32.9285656,23.8115791 33.9574231,23.8115791 C34.5736785,23.8115791 35.1312429,23.6977749 35.7483809,23.4422823 L35.4756663,24.9167489 L35.4756663,24.9167489 Z M34.5452156,21.3879132 C34.5452156,21.2593735 34.7376161,20.3464465 33.7365596,20.3264968 C33.1836287,20.3264968 32.7871336,20.7041815 32.6262849,21.3879132 L34.5452156,21.3879132 L34.5452156,21.3879132 Z" id="Fill-366" fill="#FFFFFF"></path>
            <path d="M36.6483829,20.9884652 C36.6483829,21.7402074 37.0598818,22.2591271 37.9958486,22.6461066 C38.7118346,22.9473929 38.8241418,23.0344463 38.8241418,23.3028609 C38.8241418,23.676465 38.5079606,23.8473979 37.8065371,23.8430906 C37.2787595,23.8390099 36.7975375,23.7730398 36.2302648,23.6114016 L35.9785113,24.9818122 C36.4835627,25.1026441 37.1916056,25.1420902 37.8182312,25.1572792 C39.6868552,25.1572792 40.5500099,24.5284092 40.5500099,23.169107 C40.5500099,22.3525282 40.1899209,21.8716943 39.3024954,21.5139593 C38.5606943,21.2094991 38.4735403,21.1430756 38.4735403,20.8680867 C38.4735403,20.5443569 38.7678779,20.3799983 39.3406666,20.3799983 C39.6881791,20.3799983 40.1634437,20.4133234 40.6150996,20.4695454 L40.8681769,19.0912003 C40.4083572,19.0247767 39.7109053,18.9728621 39.3073496,18.9728621 C37.3273009,18.9728621 36.6422049,19.8880561 36.6483829,20.9884652" id="Fill-367" fill="#FFFFFF"></path>
            <path d="M29.7848467,25.0588908 L28.3327963,25.0588908 L28.3678785,24.4341014 C27.9250483,24.9264971 27.3357114,25.155919 26.5354399,25.155919 C25.5886615,25.155919 24.9393097,24.4907768 24.9393097,23.5338697 C24.9393097,22.0798062 26.0672358,21.240784 28.0062449,21.240784 C28.2054854,21.240784 28.4587833,21.2564264 28.7195831,21.2854442 C28.77342,21.091161 28.7877618,21.0079615 28.7877618,20.9020919 C28.7877618,20.5030972 28.4828334,20.3571015 27.6671169,20.3571015 C26.8624325,20.360502 26.3196512,20.4831475 25.8161443,20.6223422 L26.0634849,19.2877505 C26.9348034,19.0601421 27.5047238,18.972182 28.1505453,18.972182 C29.6520197,18.972182 30.4447894,19.5767949 30.4447894,20.7139296 C30.4578073,21.0177097 30.3545464,21.6254964 30.3033573,21.8930042 C30.2440044,22.2804371 29.8280927,24.5284092 29.7848467,25.0588908 L29.7848467,25.0588908 Z M28.5104137,22.4053496 C28.3268389,22.3858533 28.2465249,22.3808658 28.1203172,22.3808658 C27.1307342,22.3808658 26.6285511,22.6832857 26.6285511,23.2806441 C26.6285511,23.6567419 26.8739059,23.8918314 27.2551767,23.8918314 C27.9669705,23.8918314 28.480627,23.2797373 28.5104137,22.4053496 L28.5104137,22.4053496 Z" id="Fill-368" fill="#FFFFFF"></path>
            <path d="M43.6083401,24.9645829 C43.1319722,25.0987902 42.760851,25.1572792 42.3592811,25.1572792 C41.4700905,25.1572792 40.9848969,24.6900474 40.9848969,23.8585063 C40.9566547,23.6299911 41.1739878,22.5744689 41.2231912,22.2804371 C41.2726152,21.9854984 42.0428793,17.6858776 42.0428793,17.6858776 L43.7702919,17.6858776 L43.5092715,19.1082029 L44.395373,19.1082029 L44.1544311,20.560226 L43.2645786,20.560226 C43.2645786,20.560226 42.7758547,23.0804667 42.7758547,23.2722562 C42.7758547,23.5787566 42.9561199,23.7106969 43.3698252,23.7106969 C43.5675212,23.7106969 43.720206,23.6925608 43.8389118,23.6558351 L43.6083401,24.9645829" id="Fill-369" fill="#FFFFFF"></path>
            <path d="M52.2008335,21.5781158 C52.2008335,22.9195086 51.665554,23.7134173 50.8198301,23.7134173 C50.2035747,23.7224854 49.8300264,23.1917771 49.8300264,22.3965082 C49.8300264,21.4543368 50.3752348,20.3892931 51.2511868,20.3892931 C51.958347,20.3892931 52.2008335,20.9653416 52.2008335,21.5781158 L52.2008335,21.5781158 Z M54.0657066,21.6157482 C54.0657066,20.1313068 53.1162805,18.972182 51.3281911,18.972182 C49.2711381,18.972182 47.9406619,20.3809051 47.9406619,22.4563574 C47.9406619,23.9417057 48.7252678,25.1572792 50.6748677,25.1572792 C52.6416778,25.1572792 54.0657066,24.0777266 54.0657066,21.6157482 L54.0657066,21.6157482 Z" id="Fill-370" fill="#FFFFFF"></path>
            <path d="M45.1473238,19.1075228 C44.9277842,20.9481123 44.5390115,22.8140924 44.235407,24.6580825 L44.1621536,25.0597976 L45.906997,25.0597976 C46.535829,21.4980902 46.7469842,20.4836009 48.0648838,20.8406558 L48.6987906,19.1555835 C47.779372,18.8089569 47.1878286,19.304073 46.6523284,20.0077545 C46.7006492,19.6910524 46.7915541,19.3852321 46.7697104,19.1075228 L45.1473238,19.1075228" id="Fill-371" fill="#FFFFFF"></path>
            <polyline id="Fill-372" fill="#FFFFFF" points="24.1264615 25.0597976 22.3888993 25.0597976 23.4215077 19.4684316 21.0434194 25.0597976 19.4592039 25.0597976 19.1694999 19.5010766 18.1333612 25.0597976 16.5568683 25.0597976 17.8994798 17.7865331 20.615593 17.7865331 20.7590108 22.2892784 22.6708808 17.7865331 25.4962122 17.7865331 24.1264615 25.0597976"></polyline>
        </g>
    </g>
</svg>