<?xml version="1.0" encoding="UTF-8"?>
<svg width="71px" height="43px" viewBox="0 0 71 43" version="1.1" xmlns="http://www.w3.org/2000/svg" xmlns:xlink="http://www.w3.org/1999/xlink">
    <!-- Generator: Sketch 48.1 (47250) - http://www.bohemiancoding.com/sketch -->
    <title>MasterCard-dark Copy</title>
    <desc>Created with Sketch.</desc>
    <defs></defs>
    <g id="Payment" stroke="none" stroke-width="1" fill="none" fill-rule="evenodd" transform="translate(-319.000000, -987.000000)">
        <g id="MasterCard-dark-Copy" transform="translate(319.000000, 987.000000)">
            <rect id="Rectangle" fill="#000066" x="0" y="0" width="70.0155565" height="43" rx="4"></rect>
            <path d="M39.2987663,21.8478715 C39.2987663,29.5722881 33.1817517,35.8333333 25.635512,35.8333333 C18.0890563,35.8333333 11.9716099,29.5722881 11.9716099,21.8478715 C11.9716099,14.123676 18.0890563,7.86196771 25.635512,7.86196771 C33.1817517,7.86196771 39.2987663,14.123676 39.2987663,21.8478715" id="Fill-333" fill="#CC0000"></path>
            <path d="M43.979646,7.86196771 C40.4483651,7.86196771 37.2319068,9.23295273 34.8066073,11.4820489 C34.3132126,11.9404437 33.8526389,12.4355278 33.4274774,12.9626597 L36.1881125,12.9626597 C36.5651222,13.4325475 36.9125498,13.9265265 37.2297475,14.4439335 L32.3856264,14.4439335 C32.0958515,14.9193469 31.8324198,15.4133258 31.5983542,15.9252074 L38.0165879,15.9252074 C38.2359704,16.4045991 38.4290097,16.898357 38.595274,17.4058182 L31.0196681,17.4058182 C30.8620409,17.8880831 30.7290295,18.3822831 30.6227931,18.8862079 L38.9917172,18.8862079 C39.192098,19.8410129 39.2987663,20.8316231 39.2987663,21.8478715 C39.2987663,23.4005347 39.0515291,24.8950698 38.595274,26.290809 L31.0196681,26.290809 C31.1859324,26.7978281 31.3789717,27.2922491 31.5979224,27.7723039 L38.0165879,27.7723039 C37.7820904,28.2828593 37.5199543,28.7772803 37.2284519,29.2533567 L32.3856264,29.2533567 C32.7015286,29.7692166 33.049604,30.2638586 33.4274774,30.7330834 L36.1872488,30.7330834 C35.7629509,31.2606573 35.3019454,31.7557414 34.8070392,32.2141362 C37.2321227,34.4632324 40.4483651,35.8333333 43.979646,35.8333333 C51.5256698,35.8333333 57.6429003,29.5722881 57.6429003,21.8478715 C57.6429003,14.1243391 51.5256698,7.86196771 43.979646,7.86196771" id="Fill-334" fill="#FF9900"></path>
            <path d="M22.444749,23.3790958 C22.2890652,23.3609722 22.2204002,23.3552257 22.113516,23.3552257 C21.2726937,23.3552257 20.8475322,23.650508 20.8475322,24.2337789 C20.8475322,24.5929359 21.0550386,24.8212492 21.3789301,24.8212492 C21.9833116,24.8212492 22.4188377,24.2324528 22.444749,23.3790958 L22.444749,23.3790958 Z M23.5237395,25.9497756 L22.2942474,25.9497756 L22.322534,25.3519174 C21.9476836,25.8240154 21.4473792,26.0494555 20.7678548,26.0494555 C19.9641721,26.0494555 19.4129088,25.4071723 19.4129088,24.4738063 C19.4129088,23.0687842 20.3714117,22.2494643 22.0169963,22.2494643 C22.1856358,22.2494643 22.4011316,22.2653777 22.6218097,22.2938892 C22.6675864,22.1033703 22.6796783,22.0224771 22.6796783,21.9197029 C22.6796783,21.5377809 22.4214288,21.3945602 21.728517,21.3945602 C21.0027841,21.3870455 20.4042327,21.572039 20.1582911,21.6547003 C20.1738379,21.5587778 20.3640701,20.3570939 20.3640701,20.3570939 C21.1029746,20.1347481 21.5905392,20.0516447 22.1392114,20.0516447 C23.4131846,20.0516447 24.0879585,20.6369048 24.086447,21.7433292 C24.0890381,22.0401587 24.0408863,22.4050621 23.9663912,22.886443 C23.8376983,23.7218973 23.5613109,25.5137038 23.5237395,25.9497756 L23.5237395,25.9497756 Z" id="Fill-336" fill="#000066"></path>
            <polyline id="Fill-337" fill="#000066" points="18.7921168 25.9497756 17.3084779 25.9497756 18.158801 20.4967783 16.2610128 25.9497756 15.2502555 25.9497756 15.1252333 20.527279 14.2321566 25.9497756 12.8437417 25.9497756 14.0034892 18.8557072 16.1366385 18.8557072 16.2655473 22.8265466 17.5669433 18.8557072 19.9393404 18.8557072 18.7921168 25.9497756"></polyline>
            <path d="M45.81244,23.3790958 C45.6567561,23.3609722 45.5889548,23.3552257 45.4822866,23.3552257 C44.6408165,23.3552257 44.2160868,23.650508 44.2160868,24.2337789 C44.2160868,24.5929359 44.4227296,24.8212492 44.7474848,24.8212492 C45.3514344,24.8212492 45.7871764,24.2324528 45.81244,23.3790958 L45.81244,23.3790958 Z M46.8920782,25.9497756 L45.663018,25.9497756 L45.6908727,25.3519174 C45.3160223,25.8240154 44.8159338,26.0494555 44.1368413,26.0494555 C43.332079,26.0494555 42.7814634,25.4071723 42.7814634,24.4738063 C42.7814634,23.0687842 43.7403982,22.2494643 45.385551,22.2494643 C45.5539745,22.2494643 45.7690385,22.2653777 45.9899325,22.2938892 C46.0359251,22.1033703 46.0478011,22.0224771 46.0478011,21.9197029 C46.0478011,21.5377809 45.7895516,21.3945602 45.0966398,21.3945602 C44.3709069,21.3870455 43.7725714,21.572039 43.5257661,21.6547003 C43.5421766,21.5587778 43.7328407,20.3570939 43.7328407,20.3570939 C44.4713133,20.1347481 44.9593098,20.0516447 45.5071182,20.0516447 C46.7819551,20.0516447 47.4558653,20.6369048 47.4545698,21.7433292 C47.4571609,22.0401587 47.4094409,22.4050621 47.334514,22.886443 C47.206253,23.7218973 46.9292178,25.5137038 46.8920782,25.9497756 L46.8920782,25.9497756 Z" id="Fill-338" fill="#000066"></path>
            <path d="M30.1160109,25.8620308 C29.7098509,25.9928745 29.3935169,26.0494555 29.0501919,26.0494555 C28.2920699,26.0494555 27.8781366,25.6034378 27.8781366,24.7819077 C27.8675562,24.526851 27.9871801,23.8560563 28.0813246,23.2442738 C28.1672638,22.7052068 28.724789,19.3072504 28.724789,19.3072504 L30.1989271,19.3072504 L30.0268327,20.1804991 L30.9175343,20.1804991 L30.7165057,21.5671766 L29.8227811,21.5671766 C29.6515505,22.6640972 29.4073363,24.0308828 29.4045292,24.212119 C29.4045292,24.5096115 29.5595653,24.639571 29.912607,24.639571 C30.0816784,24.639571 30.2125305,24.6218894 30.312505,24.5852002 L30.1160109,25.8620308" id="Fill-339" fill="#000066"></path>
            <path d="M34.6366723,25.8153957 C34.130106,25.9738668 33.6418936,26.0512237 33.1238831,26.0494555 C31.4731162,26.0472453 30.6126445,25.1653768 30.6126445,23.4756814 C30.6126445,21.5037439 31.7071818,20.0516447 33.1934118,20.0516447 C34.4088686,20.0516447 35.1855604,20.864555 35.1855604,22.1389544 C35.1855604,22.5626492 35.1324422,22.9755139 35.0035334,23.5581218 L32.0673491,23.5581218 C31.9682383,24.3951233 32.4912151,24.7436713 33.3495275,24.7436713 C33.8766069,24.7436713 34.3529433,24.6322774 34.882182,24.380978 L34.6366723,25.8153957 L34.6366723,25.8153957 Z M33.8079419,22.3953373 C33.8163631,22.2748815 33.9640576,21.3653856 33.121292,21.3653856 C32.6522971,21.3653856 32.3160977,21.7318362 32.1798474,22.3953373 L33.8079419,22.3953373 L33.8079419,22.3953373 Z" id="Fill-340" fill="#000066"></path>
            <path d="M24.4133615,22.0045745 C24.4133615,22.7337184 24.7588457,23.2369802 25.5426631,23.6151448 C26.1431579,23.9044596 26.2366546,23.9899942 26.2366546,24.2519025 C26.2366546,24.6110595 25.9714954,24.774172 25.38482,24.774172 C24.9419524,24.774172 24.5303943,24.7030037 24.0555693,24.5458587 C24.0555693,24.5458587 23.8610185,25.8180479 23.8517336,25.8788283 C24.1887967,25.953533 24.489368,26.0231542 25.3954004,26.0494555 C26.9604441,26.0494555 27.6833699,25.4394412 27.6833699,24.1210589 C27.6833699,23.3284823 27.3810712,22.8632359 26.6378482,22.5131408 C26.0161925,22.2211738 25.9442885,22.1557519 25.9442885,21.88655 C25.9442885,21.5746912 26.1910939,21.415336 26.6702373,21.415336 C26.9615237,21.415336 27.3590465,21.4471629 27.7362722,21.5017547 L27.9472335,20.1637016 C27.5633141,20.1011531 26.9807413,20.0516447 26.6417349,20.0516447 C24.9825468,20.0516447 24.4079633,20.9385966 24.4133615,22.0045745" id="Fill-341" fill="#000066"></path>
            <path d="M41.8510312,20.2039272 C42.2630211,20.2039272 42.6478042,20.313553 43.1766111,20.5869543 L43.4195297,19.0473313 C43.2014427,18.9598075 42.4368429,18.4468208 41.7890599,18.4468208 C40.7966564,18.4468208 39.9566979,18.9516298 39.3669994,19.7828847 C38.5058799,19.4911388 38.1515426,20.0808193 37.7179599,20.6687316 L37.332529,20.7606758 C37.3616793,20.5672836 37.3882384,20.3752175 37.3798172,20.1804991 L36.0168818,20.1804991 C35.8311841,21.9665591 35.5014625,23.7749421 35.243429,25.5616651 L35.1758436,25.9497756 L36.6599144,25.9497756 C36.9075834,24.302295 37.0429701,23.2478101 37.1254544,22.5334746 L37.6842752,22.2165324 C37.7682711,21.898043 38.0288957,21.7910695 38.5531681,21.8041096 C38.484719,22.1802851 38.4475795,22.5765734 38.4475795,22.9865649 C38.4475795,24.8742939 39.4438697,26.0494555 41.0400069,26.0494555 C41.4513491,26.0494555 41.8046067,25.9942006 42.3515515,25.841697 L42.6115284,24.2251591 C42.1196452,24.4724801 41.7169401,24.5889575 41.3518064,24.5889575 C40.4893914,24.5889575 39.9674942,23.9371705 39.9674942,22.8605837 C39.9674942,21.2981956 40.7431064,20.2039272 41.8510312,20.2039272" id="Fill-342" fill="#000066"></path>
            <path d="M54.4098155,18.8557072 L54.080094,20.9052226 C53.6752296,20.359083 53.2394876,19.9634578 52.6642563,19.9634578 C51.9158511,19.9634578 51.2345993,20.5442975 50.7884928,21.3996436 C50.1672689,21.2676949 49.525316,21.0433599 49.525316,21.0433599 L49.5248841,21.0488854 C49.5743316,20.5708199 49.5952766,20.279958 49.5903102,20.1804991 L48.2275908,20.1804991 C48.0425408,21.9665591 47.7123874,23.7749421 47.4545698,25.5616651 L47.3863366,25.9497756 L48.8708393,25.9497756 C49.0712201,24.6183531 49.2243128,23.5114866 49.337243,22.6349226 C49.844673,22.1654768 50.0986039,21.7572535 50.6101365,21.7837758 C50.3831966,22.3456078 50.2508329,22.9923114 50.2508329,23.6558125 C50.2508329,25.0975238 50.9629623,26.0494555 52.0417369,26.0494555 C52.5854427,26.0494555 53.002615,25.8573894 53.4094227,25.4126978 L53.3394621,25.9493336 L54.7429919,25.9493336 L55.8729413,18.8557072 L54.4098155,18.8557072 L54.4098155,18.8557072 Z M52.554781,24.617027 C52.0499421,24.617027 51.7942838,24.2337789 51.7942838,23.4796598 C51.7942838,22.3456078 52.2721317,21.5417593 52.9447464,21.5417593 C53.4545516,21.5417593 53.730939,21.9387106 53.730939,22.6716119 C53.730939,23.8153887 53.2451017,24.617027 52.554781,24.617027 L52.554781,24.617027 Z" id="Fill-343" fill="#000066"></path>
            <polyline id="Fill-344" fill="#FFFFFF" points="19.2187898 25.5287332 17.7355828 25.5287332 18.58569 20.0757358 16.6883336 25.5287332 15.6771444 25.5287332 15.5523382 20.1073416 14.6590455 25.5287332 13.2706307 25.5287332 14.4303781 18.4353278 16.5635275 18.4353278 16.6231235 22.8265466 18.0624972 18.4353278 20.3662294 18.4353278 19.2187898 25.5287332"></polyline>
            <path d="M22.871638,22.9589374 C22.7161701,22.9403718 22.6475051,22.9352883 22.5406209,22.9352883 C21.6997986,22.9352883 21.2744211,23.2301286 21.2744211,23.8129574 C21.2744211,24.1716724 21.4821435,24.4013118 21.8062509,24.4013118 C22.4104165,24.4013118 22.8459426,23.8125154 22.871638,22.9589374 L22.871638,22.9589374 Z M23.9504126,25.5287332 L22.7215683,25.5287332 L22.7496389,24.931317 C22.3747885,25.403194 21.8744841,25.6288551 21.1949598,25.6288551 C20.3910611,25.6288551 19.8400137,24.9856878 19.8400137,24.0525428 C19.8400137,22.6472997 20.7987325,21.8290849 22.4443172,21.8290849 C22.6125248,21.8290849 22.8280206,21.8447773 23.0489146,21.8739519 C23.0946913,21.6829909 23.1067832,21.6018766 23.1067832,21.4986605 C23.1067832,21.1169595 22.8485337,20.9748438 22.1556219,20.9748438 C21.4296731,20.966003 20.8313376,21.1509965 20.5851801,21.2334369 C20.6009428,21.1379564 20.7909591,19.9362724 20.7909591,19.9362724 C21.5300795,19.7143686 22.0176441,19.6306022 22.5663163,19.6306022 C23.8400735,19.6306022 24.5146315,20.2165253 24.5135519,21.3225078 C24.5159271,21.6188952 24.4682071,21.9855668 24.3934961,22.4656215 C24.2645873,23.3004128 23.9881999,25.0933244 23.9504126,25.5287332 L23.9504126,25.5287332 Z" id="Fill-345" fill="#FFFFFF"></path>
            <path d="M43.8462027,18.6262888 L43.6032841,20.1656908 C43.0736136,19.8931736 42.6899101,19.7828847 42.278352,19.7828847 C41.1708591,19.7828847 40.3939514,20.8784793 40.3939514,22.4410883 C40.3939514,23.5176752 40.9160644,24.1681361 41.7784795,24.1681361 C42.1438291,24.1681361 42.5473979,24.0525428 43.0382014,23.8043377 L42.7775767,25.4208756 C42.2314957,25.5731581 41.8780221,25.6288551 41.4668959,25.6288551 C39.869679,25.6288551 38.8749003,24.4534725 38.8749003,22.5661855 C38.8749003,20.0302058 40.2501435,18.257849 42.2159489,18.257849 C42.8637319,18.257849 43.6287636,18.538765 43.8462027,18.6262888" id="Fill-346" fill="#FFFFFF"></path>
            <path d="M46.239113,22.9589374 C46.0845088,22.9403718 46.0156279,22.9352883 45.9089596,22.9352883 C45.0685692,22.9352883 44.6429758,23.2301286 44.6429758,23.8129574 C44.6429758,24.1716724 44.8504822,24.4013118 45.1743737,24.4013118 C45.7783234,24.4013118 46.2142813,23.8125154 46.239113,22.9589374 L46.239113,22.9589374 Z M47.3187513,25.5287332 L46.089907,25.5287332 L46.1177617,24.931317 C45.7429112,25.403194 45.2426069,25.6288551 44.5637303,25.6288551 C43.7589679,25.6288551 43.2085683,24.9856878 43.2085683,24.0525428 C43.2085683,22.6472997 44.1664234,21.8290849 45.81244,21.8290849 C45.9806476,21.8290849 46.1957115,21.8447773 46.4163896,21.8739519 C46.4623822,21.6829909 46.4744741,21.6018766 46.4744741,21.4986605 C46.4744741,21.1169595 46.2168725,20.9748438 45.5235287,20.9748438 C44.7982278,20.966003 44.2001081,21.1509965 43.9535188,21.2334369 C43.9690656,21.1379564 44.1592978,19.9362724 44.1592978,19.9362724 C44.8984182,19.7143686 45.385551,19.6306022 45.9342231,19.6306022 C47.2079804,19.6306022 47.8831862,20.2165253 47.8814588,21.3225078 C47.8844817,21.6188952 47.8363299,21.9855668 47.7616189,22.4656215 C47.6331419,23.3004128 47.3567545,25.0933244 47.3187513,25.5287332 L47.3187513,25.5287332 Z" id="Fill-347" fill="#FFFFFF"></path>
            <path d="M30.5426839,25.4412094 C30.1369558,25.572053 29.82019,25.6288551 29.4772969,25.6288551 C28.7189589,25.6288551 28.3048097,25.1826164 28.3048097,24.3619703 C28.2944452,24.1060295 28.414285,23.4363399 28.5086454,22.8238944 C28.5939368,22.2843854 29.1516779,18.886871 29.1516779,18.886871 L30.6262479,18.886871 L30.4537217,19.7598987 L31.2107641,19.7598987 L31.0090876,21.1461341 L30.2496701,21.1461341 C30.0784394,22.2441598 29.8342253,23.6100614 29.8312023,23.7912975 C29.8312023,24.0896741 29.9868861,24.2187496 30.339496,24.2187496 C30.5085673,24.2187496 30.6392036,24.201731 30.7396099,24.1641577 L30.5426839,25.4412094" id="Fill-348" fill="#FFFFFF"></path>
            <path d="M35.064209,25.3954583 C34.5574268,25.5543714 34.0681347,25.6292971 33.5507721,25.6288551 C31.8997892,25.62775 31.0399653,24.7447764 31.0399653,23.055302 C31.0399653,21.0827014 32.1342867,19.6306022 33.6194371,19.6306022 C34.8361894,19.6306022 35.6124493,20.4435125 35.6124493,21.7194591 C35.6124493,22.1422697 35.5584674,22.5549135 35.4310701,23.1377423 L32.494454,23.1377423 C32.3949113,23.9747438 32.9185359,24.3239549 33.7759846,24.3239549 C34.3034959,24.3239549 34.7796164,24.212119 35.3095028,23.9601565 L35.064209,25.3954583 L35.064209,25.3954583 Z M34.2352628,21.9742948 C34.2432521,21.8536181 34.3915944,20.9445641 33.5490447,20.9445641 C33.0796179,20.9445641 32.7434186,21.3116778 32.6067364,21.9742948 L34.2352628,21.9742948 L34.2352628,21.9742948 Z" id="Fill-349" fill="#FFFFFF"></path>
            <path d="M24.8400345,21.583532 C24.8400345,22.314002 25.1859506,22.8161587 25.9699839,23.1947654 C26.5704787,23.4838592 26.6635436,23.5693938 26.6635436,23.8315231 C26.6635436,24.1911221 26.3986003,24.3533505 25.811493,24.3533505 C25.3690573,24.3533505 24.9572832,24.2830663 24.4822424,24.1263633 C24.4822424,24.1263633 24.2879075,25.3976685 24.2788385,25.4575648 C24.6156857,25.5331536 24.9164729,25.6021117 25.8220735,25.6288551 C27.387549,25.6288551 28.1104748,25.0190618 28.1104748,23.7006795 C28.1104748,22.9076609 27.8077442,22.4426355 27.0647372,22.0934244 C26.4428655,21.8005733 26.3713934,21.7358146 26.3713934,21.4661706 C26.3713934,21.1543118 26.6179828,20.9938515 27.0975582,20.9938515 C27.3881968,20.9938515 27.7861515,21.0270045 28.1631611,21.0813753 L28.3743384,19.7435432 C27.9902031,19.6814367 27.4080621,19.6306022 27.0688398,19.6306022 C25.4092198,19.6306022 24.8350682,20.5177752 24.8400345,21.583532" id="Fill-350" fill="#FFFFFF"></path>
            <path d="M55.1698808,25.5287332 L53.7667829,25.5287332 L53.8363116,24.9918764 C53.429288,25.436789 53.0123317,25.6288551 52.4686259,25.6288551 C51.390715,25.6288551 50.677506,24.6780284 50.677506,23.23477 C50.677506,21.3158772 51.7832715,19.6984552 53.0911453,19.6984552 C53.6663766,19.6984552 54.1019027,19.9389246 54.5076307,20.4852853 L54.8367045,18.4353278 L56.2996143,18.4353278 L55.1698808,25.5287332 L55.1698808,25.5287332 Z M52.9814541,24.1957635 C53.6726385,24.1957635 54.157612,23.3945672 54.157612,22.2518955 C54.157612,21.5187732 53.8814405,21.1204958 53.3716353,21.1204958 C52.6988048,21.1204958 52.2211728,21.9245654 52.2211728,23.0590593 C52.2211728,23.8140625 52.4770471,24.1957635 52.9814541,24.1957635 L52.9814541,24.1957635 Z" id="Fill-351" fill="#FFFFFF"></path>
            <path d="M48.6549116,19.7598987 C48.4694298,21.5455166 48.1394923,23.3538996 47.8814588,25.1408436 L47.8138734,25.5287332 L49.2975123,25.5287332 C49.8282625,22.0008172 49.9558757,21.3123409 50.7884928,21.3983175 C50.9208564,20.6762463 51.1676617,20.043909 51.3514162,19.7251986 C50.7301923,19.5925868 50.3831966,19.9519648 49.9284529,20.6349156 C49.9647288,20.3394123 50.0301549,20.0527498 50.017847,19.7598987 L48.6549116,19.7598987" id="Fill-352" fill="#FFFFFF"></path>
            <path d="M36.4444186,19.7598987 C36.258073,21.5455166 35.9277037,23.3538996 35.670102,25.1408436 L35.6027326,25.5287332 L37.0868034,25.5287332 C37.6177695,22.0008172 37.7449509,21.3123409 38.5762723,21.3983175 C38.7094997,20.6762463 38.9567369,20.043909 39.1400595,19.7251986 C38.5194834,19.5925868 38.1718398,19.9519648 37.7179599,20.6349156 C37.7538039,20.3394123 37.8196618,20.0527498 37.8067062,19.7598987 L36.4444186,19.7598987" id="Fill-353" fill="#FFFFFF"></path>
        </g>
    </g>
</svg>