<?xml version="1.0" encoding="UTF-8"?>
<svg width="71px" height="43px" viewBox="0 0 71 43" version="1.1" xmlns="http://www.w3.org/2000/svg" xmlns:xlink="http://www.w3.org/1999/xlink">
    <!-- Generator: Sketch 48.1 (47250) - http://www.bohemiancoding.com/sketch -->
    <title>publish</title>
    <desc>Created with Sketch.</desc>
    <defs>
        <path d="M1.13686838e-12,17.56 L1.13686838e-12,21.4 C5.376,21.4 9.6,25.624 9.6,31 L13.44,31 C13.44,23.512 7.488,17.56 1.13686838e-12,17.56 L1.13686838e-12,17.56 Z" id="path-1"></path>
        <path d="M9.09494702e-13,13.8181818 C9.54545455,13.8181818 17.1818182,21.4545455 17.1818182,31 L21,31 C21,19.3545455 11.6454545,10 9.09494702e-13,10 L9.09494702e-13,13.8181818 Z" id="path-2"></path>
        <path d="M1.60727152,6.0003966 C14.170137,6.0003966 24.2204294,16.492341 24.2204294,29.6072715 L29.2455756,29.6072715 C29.2455756,13.6070563 16.9339674,0.754424392 1.60727152,0.754424392 L1.60727152,6.0003966 Z" id="path-3"></path>
        <path d="M6.82121026e-13,17.56 L6.82121026e-13,21.4 C5.376,21.4 9.6,25.624 9.6,31 L13.44,31 C13.44,23.512 7.488,17.56 6.82121026e-13,17.56 L6.82121026e-13,17.56 Z" id="path-4"></path>
        <path d="M1.13686838e-12,10 L1.13686838e-12,13.8181818 C9.54545455,13.8181818 17.1818182,21.4545455 17.1818182,31 L21,31 C21,19.3545455 11.6454545,10 1.13686838e-12,10 L1.13686838e-12,10 Z" id="path-5"></path>
        <path d="M0.186684591,6.3173559 C13.8947836,6.3173559 24.8612628,17.2543385 24.8612628,30.9255669 L30.3445024,30.9255669 C30.3445024,14.2466683 16.9105654,0.848864578 0.186684591,0.848864578 L0.186684591,6.3173559 Z" id="path-6"></path>
    </defs>
    <g id="List-of-Cafe" stroke="none" stroke-width="1" fill="none" fill-rule="evenodd" transform="translate(-605.000000, -1265.000000)">
        <g id="tabs" transform="translate(0.000000, 1239.000000)">
            <g id="Group-3" transform="translate(591.000000, 25.000000)">
                <g id="publish">
                    <g>
                        <circle id="Oval-4" stroke="#000000" stroke-width="2" fill="#FFFFFF" cx="49.5" cy="26.5" r="7.5"></circle>
                        <g id="Group-2" stroke-width="1">
                            <g transform="translate(75.054066, 21.985334) rotate(35.000000) translate(-75.054066, -21.985334) translate(60.054066, 6.485334)">
                                <g id="Path">
                                    <use fill="#FFFFFF" fill-rule="evenodd" xlink:href="#path-1"></use>
                                    <path stroke="#000000" stroke-width="2" d="M1,18.5984874 L1,20.4448254 C6.11640897,20.9065157 10.0934843,24.883591 10.5551746,30 L12.4015126,30 C11.927443,23.8722319 7.12776808,19.072557 1,18.5984874 Z"></path>
                                </g>
                                <g id="Path">
                                    <use fill="#FFFFFF" fill-rule="evenodd" xlink:href="#path-2"></use>
                                    <path stroke="#000000" stroke-width="2" d="M1,12.8447525 C10.2952511,13.3401701 17.6598299,20.7047489 18.1552475,30 L19.9757603,30 C19.4755165,19.7076001 11.2923999,11.5244835 1,11.0242397 L1,12.8447525 Z"></path>
                                </g>
                                <g id="Path" transform="translate(15.426424, 15.180848) rotate(-1.000000) translate(-15.426424, -15.180848) ">
                                    <use fill="#FFFFFF" fill-rule="evenodd" xlink:href="#path-3"></use>
                                    <path stroke="#000000" stroke-width="3" d="M3.10727152,4.54733522 C15.3261389,5.31469357 24.9712052,15.3999048 25.6787999,28.1072715 L27.7074714,28.1072715 C26.9962551,14.1487232 16.4138059,3.0764037 3.10727152,2.29815937 L3.10727152,4.54733522 Z"></path>
                                </g>
                            </g>
                            <g transform="translate(22.702478, 22.720628) rotate(-127.000000) translate(-22.702478, -22.720628) translate(7.202478, 7.220628)">
                                <g id="Path">
                                    <use fill="#FFFFFF" fill-rule="evenodd" xlink:href="#path-4"></use>
                                    <path stroke="#000000" stroke-width="2" d="M1,18.5984874 L1,20.4448254 C6.11640897,20.9065157 10.0934843,24.883591 10.5551746,30 L12.4015126,30 C11.927443,23.8722319 7.12776808,19.072557 1,18.5984874 Z"></path>
                                </g>
                                <g id="Path">
                                    <use fill="#FFFFFF" fill-rule="evenodd" xlink:href="#path-5"></use>
                                    <path stroke="#000000" stroke-width="2" d="M1,11.0242397 L1,12.8447525 C10.2952511,13.3401701 17.6598299,20.7047489 18.1552475,30 L19.9757603,30 C19.4755165,19.7076001 11.2923999,11.5244835 1,11.0242397 Z"></path>
                                </g>
                                <g id="Path">
                                    <use fill="#FFFFFF" fill-rule="evenodd" xlink:href="#path-6"></use>
                                    <path stroke="#000000" stroke-width="3" d="M1.68668459,4.85879254 C15.0173252,5.59756991 25.5769605,16.1277862 26.3195121,29.4255669 L28.8062134,29.4255669 C28.0562942,14.7757948 16.3801236,3.13253947 1.68668459,2.38682587 L1.68668459,4.85879254 Z"></path>
                                </g>
                            </g>
                        </g>
                    </g>
                </g>
            </g>
        </g>
    </g>
</svg>