<?xml version="1.0" encoding="UTF-8"?>
<svg width="598px" height="99px" viewBox="0 0 598 99" version="1.1" xmlns="http://www.w3.org/2000/svg" xmlns:xlink="http://www.w3.org/1999/xlink">
    <!-- Generator: Sketch 48.1 (47250) - http://www.bohemiancoding.com/sketch -->
    <title>SLIDE TO PAY + Oval 2 + arrow-right Mask</title>
    <desc>Created with Sketch.</desc>
    <defs>
        <rect id="path-1" x="0" y="0" width="598" height="99" rx="49.5"></rect>
    </defs>
    <g id="Packges---pk1" stroke="none" stroke-width="1" fill="none" fill-rule="evenodd" transform="translate(-78.000000, -1099.000000)">
        <g id="SLIDE-TO-PAY-+-Oval-2-+-arrow-right-Mask" transform="translate(78.000000, 1099.000000)">
            <mask id="mask-2" fill="white">
                <use xlink:href="#path-1"></use>
            </mask>
            <use id="Mask" fill="#EFC2BA" xlink:href="#path-1"></use>
            <text id="SLIDE-TO-PAY" mask="url(#mask-2)" font-family="HelveticaNeue-Medium, Helvetica Neue" font-size="30" font-weight="400" fill="#FFFFFF">
                <tspan x="200.075" y="61">SLIDE TO PAY</tspan>
            </text>
            <circle id="Oval-2" stroke="#FFFFFF" fill="#FFFFFF" mask="url(#mask-2)" cx="52.5" cy="49.5" r="31.5"></circle>
            <path d="M66.825,50.4126994 C66.775,50.4999573 66.725,50.5722567 66.675,50.6620077 C66.5889999,50.8363232 66.4796683,50.9981895 66.35,51.1431727 C66.2655085,51.2211519 66.1733799,51.2904748 66.075,51.3500986 L59.675,60.8038694 C58.7946791,61.9685403 57.2026914,62.3344203 55.9,61.6714623 C55.2819159,61.4327602 54.8060988,60.9268907 54.6067372,60.2965176 C54.4073757,59.6661445 54.5060749,58.9795828 54.875,58.4304544 L59.225,51.9908209 L39.5,51.9908209 C38.1192881,51.9908209 37,50.8746296 37,49.4977379 C37,48.1208462 38.1192881,47.0046549 39.5,47.0046549 L59.225,47.0046549 L54.875,40.5675145 C54.5070476,40.0181389 54.4089042,39.331955 54.608165,38.7019003 C54.8074259,38.0718457 55.2825704,37.5659677 55.9,37.3265066 C57.2030863,36.6667559 58.7929164,37.0321401 59.675,38.1940994 L66.025,47.5730778 C66.0659205,47.6050069 66.0999368,47.6448654 66.125,47.6902527 C66.3404549,47.8722671 66.5260316,48.0867722 66.675,48.3259889 C66.8388074,48.6109501 66.933017,48.9303765 66.95,49.2584019 C66.9694774,49.3210364 66.9785406,49.350862 66.975,49.380563 C66.975,49.4204523 67,49.4553555 67,49.4952448 C67,49.5351341 66.975,49.5725304 66.975,49.6099266 C66.978478,49.6411577 66.9694983,49.6724999 66.95,49.6971845 C66.9339709,49.9847062 66.8920159,50.202269 66.825,50.4126994 Z" id="arrow-right" fill="#EFC2BA" mask="url(#mask-2)"></path>
        </g>
    </g>
</svg>