<?xml version="1.0" encoding="UTF-8"?>
<svg width="71px" height="43px" viewBox="0 0 71 43" version="1.1" xmlns="http://www.w3.org/2000/svg" xmlns:xlink="http://www.w3.org/1999/xlink">
    <!-- Generator: Sketch 48.1 (47250) - http://www.bohemiancoding.com/sketch -->
    <title>Visa-dark Copy</title>
    <desc>Created with Sketch.</desc>
    <defs></defs>
    <g id="Payment" stroke="none" stroke-width="1" fill="none" fill-rule="evenodd" transform="translate(-238.000000, -987.000000)">
        <g id="Visa-dark-Copy" transform="translate(238.000000, 987.000000)">
            <rect id="Rectangle" fill="#26337A" x="0" y="0" width="70.0155565" height="43" rx="4"></rect>
            <polyline id="Fill-3" fill="#FFFFFE" points="29.0494479 28.3418451 31.2022424 14.6720845 34.643407 14.6720845 32.4908093 28.3418451 29.0494479 28.3418451"></polyline>
            <path d="M44.9730021,15.0076056 C44.2926025,14.7332535 43.2225035,14.4340704 41.8894557,14.4340704 C38.487261,14.4340704 36.0923805,16.2891268 36.0725019,18.9454366 C36.0508519,20.9103146 37.7814719,22.006108 39.086178,22.6591831 C40.4270985,23.3286103 40.8776147,23.7569953 40.8723006,24.3555634 C40.8630502,25.2710798 39.8020048,25.6905822 38.8126011,25.6905822 C37.4348756,25.6905822 36.7029097,25.484061 35.5712067,24.9737136 L35.1285632,24.7560892 L34.6473433,27.8159531 C35.44977,28.1966948 36.9373199,28.527169 38.4811597,28.5445305 C42.0969017,28.5445305 44.4463173,26.7118826 44.4738718,23.8752958 C44.4862713,22.3172019 43.5692966,21.136216 41.5834038,20.1611455 C40.3808463,19.5272488 39.6427791,19.1073427 39.6512422,18.4657746 C39.6520295,17.8976901 40.2747614,17.2894319 41.6225705,17.2894319 C42.7481723,17.2708592 43.5629985,17.5369343 44.1979331,17.8147183 L44.5069372,17.9709718 L44.9730021,15.0076056" id="Fill-4" fill="#FFFFFE"></path>
            <path d="M49.5551202,23.4953615 C49.8403093,22.7096526 50.925957,19.6744178 50.925957,19.6744178 C50.9058816,19.710554 51.2095716,18.8826526 51.3833618,18.3702864 L51.615607,19.5492535 C51.615607,19.5492535 52.2759311,22.8120047 52.4119323,23.4953615 L49.5551202,23.4953615 L49.5551202,23.4953615 Z M53.8004828,14.6860141 L51.141079,14.6860141 C50.3162151,14.6860141 49.6987972,14.9278638 49.3374395,15.8191549 L44.2270621,28.3466901 L47.8414265,28.3466901 C47.8414265,28.3466901 48.431093,26.6614131 48.5649292,26.2915728 C48.9591555,26.2915728 52.4711745,26.2986385 52.9724698,26.2986385 C53.0756024,26.7756761 53.3914951,28.3466901 53.3914951,28.3466901 L56.5854564,28.3466901 L53.8004828,14.6860141 L53.8004828,14.6860141 Z" id="Fill-5" fill="#FFFFFE"></path>
            <path d="M26.1625226,14.6835915 L22.7943775,24.0030845 L22.4336102,22.108662 C21.8059579,19.9259577 19.8521464,17.5601502 17.6666801,16.374723 L20.7480615,28.3299343 L24.3899804,28.3277136 L29.8091651,14.6835915 L26.1625226,14.6835915" id="Fill-6" fill="#FFFFFE"></path>
            <path d="M19.667728,14.6743052 L14.1184466,14.6743052 L14.0727848,14.9575399 C18.3907733,16.0898732 21.2477823,18.8230986 22.4336102,22.108662 L21.2277068,15.8276338 C21.0196703,14.9613756 20.4150456,14.7045869 19.667728,14.6743052" id="Fill-7" fill="#EC982D"></path>
        </g>
    </g>
</svg>