<?xml version="1.0" encoding="UTF-8"?>
<svg width="569px" height="100px" viewBox="0 0 569 100" version="1.1" xmlns="http://www.w3.org/2000/svg" xmlns:xlink="http://www.w3.org/1999/xlink">
    <!-- Generator: Sketch 48.1 (47250) - http://www.bohemiancoding.com/sketch -->
    <title>instagram</title>
    <desc>Created with Sketch.</desc>
    <defs>
        <rect id="path-1" x="0" y="0" width="569" height="100" rx="2"></rect>
    </defs>
    <g id="share" stroke="none" stroke-width="1" fill="none" fill-rule="evenodd" transform="translate(-80.000000, -638.000000)">
        <g id="instagram" transform="translate(80.000000, 638.000000)">
            <g id="Rectangle-3">
                <use fill="#FFDC80" fill-rule="evenodd" xlink:href="#path-1"></use>
                <rect stroke="#F8E71C" stroke-width="1" x="0.5" y="0.5" width="568" height="99" rx="2"></rect>
            </g>
            <text id="Instagram" font-family=".SFNSDisplay, .SF NS Display" font-size="38" font-weight="normal" fill="#FFFFFF">
                <tspan x="214" y="62">Instagram</tspan>
            </text>
            <path d="M99,1 L99,98.5" id="Line" stroke="#F1CA62" stroke-width="2" stroke-linecap="square"></path>
            <rect id="Rectangle" x="21" y="33.8157042" width="44.0882538" height="44.1911961"></rect>
            <ellipse id="Oval" stroke="#FFFFFF" stroke-width="2" cx="47.1511514" cy="52.1717037" rx="25.1511514" ry="25.2122121"></ellipse>
            <path d="M54.2072878,39.7078637 L39.6226477,39.7078637 C37.089835,39.7078637 35.0280807,41.7730309 35.0280807,44.3131586 L35.0280807,58.9318525 C35.0280807,61.4719802 37.089835,63.5371474 39.6226477,63.5371474 L54.2072878,63.5371474 C56.7401005,63.5371474 58.8018548,61.4719802 58.8018548,58.9318525 L58.8018548,44.3131586 C58.8018548,41.7730309 56.7401005,39.7078637 54.2072878,39.7078637 L54.2072878,39.7078637 Z M55.5254127,42.4553487 L56.0509853,42.4525466 L56.0509853,46.4918119 L52.0337096,46.5044215 L52.0197316,42.4651561 L55.5254127,42.4553487 L55.5254127,42.4553487 Z M43.5225084,49.1762491 C44.2829113,48.1198474 45.5185661,47.4277222 46.9149678,47.4277222 C48.3113695,47.4277222 49.5470242,48.1198474 50.3074272,49.1762491 C50.803646,49.8655722 51.0999795,50.7090123 51.0999795,51.6225055 C51.0999795,53.9342599 49.2227347,55.8158878 46.9149678,55.8158878 C44.6085986,55.8158878 42.7313538,53.9342599 42.7313538,51.6225055 C42.7313538,50.7090123 43.0276873,49.8655722 43.5225084,49.1762491 L43.5225084,49.1762491 Z M56.485701,58.9318525 C56.485701,60.1914084 55.4639095,61.2155856 54.2072878,61.2155856 L39.6226477,61.2155856 C38.366026,61.2155856 37.3442345,60.1914084 37.3442345,58.9318525 L37.3442345,49.1762491 L40.8946453,49.1762491 C40.5871294,49.9328233 40.4152,50.7580495 40.4152,51.6225055 C40.4152,55.2148317 43.3310098,58.1388507 46.9149678,58.1388507 C50.5003235,58.1388507 53.4161333,55.2148317 53.4161333,51.6225055 C53.4161333,50.7580495 53.2414083,49.9328233 52.936688,49.1762491 L56.485701,49.1762491 L56.485701,58.9318525 L56.485701,58.9318525 Z" id="Shape" fill="#FFFFFF"></path>
        </g>
    </g>
</svg>