<?xml version="1.0" encoding="UTF-8"?>
<svg width="84px" height="84px" viewBox="0 0 84 84" version="1.1" xmlns="http://www.w3.org/2000/svg" xmlns:xlink="http://www.w3.org/1999/xlink">
    <!-- Generator: Sketch 48.1 (47250) - http://www.bohemiancoding.com/sketch -->
    <title>whatsapp-icon copy 4</title>
    <desc>Created with Sketch.</desc>
    <defs>
        <path d="M29.2859,0 L54.7141,0 C63.147,0 67.3624,0 71.9019,1.435 C76.8579,3.2389 80.7611,7.1421 82.565,12.0981 C84,16.6369 84,20.8537 84,29.2859 L84,54.7141 C84,63.147 84,67.3624 82.565,71.9019 C80.7611,76.8579 76.8579,80.7611 71.9019,82.5643 C67.3624,84 63.147,84 54.7141,84 L29.2859,84 C20.853,84 16.6369,84 12.0981,82.5643 C7.1421,80.7611 3.2389,76.8579 1.435,71.9019 C0,67.3624 0,63.147 0,54.7141 L0,29.2859 C0,20.8537 0,16.6369 1.435,12.0981 C3.2389,7.1421 7.1421,3.2389 12.0981,1.435 C16.6369,0 20.853,0 29.2859,0 L29.2859,0" id="path-1"></path>
        <polygon id="path-2" points="8.45 46.2 15.8 54.6 1.1 54.6"></polygon>
    </defs>
    <g id="share" stroke="none" stroke-width="1" fill="none" fill-rule="evenodd" transform="translate(-334.000000, -1062.000000)">
        <g id="whatsapp-icon-copy-4" transform="translate(334.000000, 1062.000000)">
            <g id="Icon-Shape">
                <use fill="#FFFFFF" fill-rule="evenodd" xlink:href="#path-1"></use>
                <path stroke="#000000" stroke-width="2" d="M29.2859,1 C19.4538192,1 16.8591782,1.14616452 13.327225,2.11461255 C13.0184551,2.19927608 12.709776,2.29040004 12.4401308,2.37468875 C7.76188865,4.07748959 4.07748959,7.76188865 2.38848038,12.3995551 C2.29056817,12.7092442 2.19958819,13.0174013 2.11504718,13.3256499 C1.14622859,16.8581009 1,19.4531499 1,29.2859 L1,54.7141 C1,64.543541 1.14604383,67.1377584 2.11363746,70.6690886 C2.19858015,70.9790955 2.29003166,71.2890108 2.37468875,71.5598692 C4.07753315,76.238231 7.76198567,79.9225065 12.3996888,81.6108619 C12.7099053,81.7089887 13.0185797,81.8001557 13.3273449,81.8848593 C16.8592464,82.8537655 19.4538634,83 29.2859,83 L54.7141,83 C64.5434968,83 67.1376901,82.8538863 70.6689687,81.8858348 C70.9789708,81.800852 71.2888816,81.7093572 71.5599864,81.6245686 C76.2380143,79.9225065 79.9224669,76.238231 81.6115063,71.6004872 C81.7099683,71.2890108 81.8014198,70.9790955 81.8863625,70.6690886 C82.8539562,67.1377584 83,64.543541 83,54.7141 L83,29.2859 C83,19.4531499 82.8537714,16.8581009 81.8849528,13.3256499 C81.8004118,13.0174013 81.7094318,12.7092442 81.6253113,12.4401308 C79.9225104,7.76188865 76.2381114,4.07748959 71.6004872,2.38849374 C71.2890108,2.29003166 70.9790955,2.19858015 70.6690886,2.11363746 C67.1377584,1.14604383 64.543541,1 54.7141,1 L29.2859,1 Z"></path>
            </g>
            <g id="balloon-tip" transform="translate(9.400000, 12.600000)">
                <path d="M30.5,56.7 C45.5773744,56.7 57.8,44.0072734 57.8,28.35 C57.8,12.6927266 45.5773744,0 30.5,0 C15.4226256,0 3.2,12.6927266 3.2,28.35 C3.2,44.0072734 15.4226256,56.7 30.5,56.7 Z" id="Oval-1" fill="#FFFFFF"></path>
                <g id="Triangle-1" transform="translate(8.450000, 50.400000) rotate(-134.000000) translate(-8.450000, -50.400000) ">
                    <use fill="#000000" fill-rule="evenodd" xlink:href="#path-2"></use>
                    <path stroke="#000000" stroke-width="1" d="M8.45,46.9592961 L2.20188411,54.1 L14.6981159,54.1 L8.45,46.9592961 Z"></path>
                </g>
            </g>
            <g id="balloon-tip-copy" transform="translate(9.400000, 12.600000)" fill="#FFFFFF" stroke="#000000" stroke-width="3">
                <path d="M30.5,56.7 C45.5773744,56.7 57.8,44.0072734 57.8,28.35 C57.8,12.6927266 45.5773744,0 30.5,0 C15.4226256,0 3.2,12.6927266 3.2,28.35 C3.2,44.0072734 15.4226256,56.7 30.5,56.7 Z" id="Oval-1"></path>
            </g>
            <path d="M33.9774064,29.9401464 L36.1129041,35.7985825 C36.1129041,35.7985825 36.3326169,37.463043 34.1943458,39.0283472 C32.0560748,40.5936513 41.6491742,49.3183923 43.6056352,48.5945503 C45.5620962,47.8707083 46.4101323,44.56367 46.4101323,44.56367 L52.4939896,47.9387502 C52.4939896,47.9387502 52.9229377,55.0602342 46.5333933,54.5764191 C40.1438489,54.0926041 34.768126,49.5563678 34.768126,49.5563678 C34.768126,49.5563678 25.4988948,40.9406987 27.6137465,34.0694993 C29.728598,27.1982998 33.9774064,29.9401464 33.9774064,29.9401464 Z" id="phone" fill="#000000"></path>
        </g>
    </g>
</svg>