<?xml version="1.0" encoding="UTF-8"?>
<svg width="30px" height="30px" viewBox="0 0 50 50" version="1.1" xmlns="http://www.w3.org/2000/svg" xmlns:xlink="http://www.w3.org/1999/xlink">
    <!-- Generator: Sketch 48.1 (47250) - http://www.bohemiancoding.com/sketch -->
    <title>whatsapp-icon copy 4</title>
    <desc>Created with Sketch.</desc>
    <defs>
        <path d="M17.4320833,0 L32.5679167,0 C37.5875,0 40.0966667,0 42.79875,0.854166667 C45.74875,1.92791667 48.0720833,4.25125 49.1458333,7.20125 C50,9.90291667 50,12.4129167 50,17.4320833 L50,32.5679167 C50,37.5875 50,40.0966667 49.1458333,42.79875 C48.0720833,45.74875 45.74875,48.0720833 42.79875,49.1454167 C40.0966667,50 37.5875,50 32.5679167,50 L17.4320833,50 C12.4125,50 9.90291667,50 7.20125,49.1454167 C4.25125,48.0720833 1.92791667,45.74875 0.854166667,42.79875 C0,40.0966667 0,37.5875 0,32.5679167 L0,17.4320833 C0,12.4129167 0,9.90291667 0.854166667,7.20125 C1.92791667,4.25125 4.25125,1.92791667 7.20125,0.854166667 C9.90291667,0 12.4125,0 17.4320833,0 L17.4320833,0" id="path-1"></path>
        <polygon id="path-2" points="5.24224178 27.8837576 9.61724178 32.8837576 0.867241776 32.8837576"></polygon>
    </defs>
    <g id="Order-Details" stroke="none" stroke-width="1" fill="none" fill-rule="evenodd" transform="translate(-634.000000, -293.000000)">
        <g id="whatsapp-icon-copy-4" transform="translate(634.000000, 293.000000)">
            <g id="Icon-Shape">
                <use fill="#FFFFFF" fill-rule="evenodd" xlink:href="#path-1"></use>
                <path stroke="#EE5856" stroke-width="1.19047619" d="M17.4320833,0.595238095 C11.5796543,0.595238095 10.0352251,0.682240786 7.932872,1.25869795 C7.74908039,1.3090929 7.56534287,1.36333336 7.40483975,1.41350521 C4.62017181,2.42707714 2.42707714,4.62017181 1.42171451,7.38068755 C1.36343343,7.56502634 1.30927869,7.74845314 1.25895665,7.93193447 C0.682278925,10.0345839 0.595238095,11.5792559 0.595238095,17.4320833 L0.595238095,32.5679167 C0.595238095,38.4187744 0.682168944,39.9629514 1.25811753,42.0649337 C1.30867866,42.2494616 1.36311409,42.433935 1.41350521,42.5951603 C2.42710306,45.3798994 4.62022956,47.5729205 7.38076712,48.577894 C7.56541981,48.6363028 7.7491546,48.6905689 7.93294341,48.7409877 C10.0352657,49.3177176 11.5796806,49.4047619 17.4320833,49.4047619 L32.5679167,49.4047619 C38.4187481,49.4047619 39.9629108,49.3177895 42.0648623,48.7415683 C42.2493874,48.6909833 42.4338581,48.6365222 42.59523,48.5860527 C45.3797704,47.5729205 47.5728969,45.3798994 48.5782775,42.6193376 C48.6368859,42.433935 48.6913213,42.2494616 48.7418825,42.0649337 C49.3178311,39.9629514 49.4047619,38.4187744 49.4047619,32.5679167 L49.4047619,17.4320833 C49.4047619,11.5792559 49.3177211,10.0345839 48.7410433,7.93193447 C48.6907213,7.74845314 48.6365666,7.56502634 48.5864948,7.40483975 C47.5729229,4.62017181 45.3798282,2.42707714 42.6193376,1.42172246 C42.433935,1.36311409 42.2494616,1.30867866 42.0649337,1.25811753 C39.9629514,0.682168944 38.4187744,0.595238095 32.5679167,0.595238095 L17.4320833,0.595238095 Z"></path>
            </g>
            <g id="balloon-tip" transform="translate(5.595238, 7.500000)">
                <path d="M18.25,33.75 C27.2246276,33.75 34.5,26.1948056 34.5,16.875 C34.5,7.55519439 27.2246276,0 18.25,0 C9.27537237,0 2,7.55519439 2,16.875 C2,26.1948056 9.27537237,33.75 18.25,33.75 Z" id="Oval-1" fill="#FFFFFF"></path>
                <g id="Triangle-1" transform="translate(5.242242, 30.383758) rotate(-134.000000) translate(-5.242242, -30.383758) ">
                    <use fill="#EE4C48" fill-rule="evenodd" xlink:href="#path-2"></use>
                    <path stroke="#EE4C48" stroke-width="0.595238095" d="M5.24224178,28.3357195 L1.52312518,32.5861385 L8.96135838,32.5861385 L5.24224178,28.3357195 Z"></path>
                </g>
            </g>
            <g id="balloon-tip-copy" transform="translate(7.595238, 7.500000)" fill="#FFFFFF" stroke="#EE5856" stroke-width="1.78571429">
                <path d="M16.25,33.75 C25.2246276,33.75 32.5,26.1948056 32.5,16.875 C32.5,7.55519439 25.2246276,0 16.25,0 C7.27537237,0 0,7.55519439 0,16.875 C0,26.1948056 7.27537237,33.75 16.25,33.75 Z" id="Oval-1"></path>
            </g>
            <path d="M19.9746467,18.3215157 L21.2457762,21.8086801 C21.2457762,21.8086801 21.3765577,22.7994304 20.1037773,23.731159 C18.8309969,24.6628877 24.5411751,29.8561859 25.7057352,29.4253276 C26.8702954,28.9944692 27.3750787,27.0259941 27.3750787,27.0259941 L30.9964224,29.0349703 C30.9964224,29.0349703 31.2517487,33.2739489 27.4484484,32.9859638 C23.6451481,32.6979786 20.4453131,29.997838 20.4453131,29.997838 C20.4453131,29.997838 14.9279136,24.8694635 16.1867539,20.7794639 C17.445594,16.6894642 19.9746467,18.3215157 19.9746467,18.3215157 Z" id="phone" fill="#EE5856"></path>
        </g>
    </g>
</svg>